<?xml version="1.0" encoding="UTF-8" standalone="no"?>
<!DOCTYPE svg PUBLIC "-//W3C//DTD SVG 1.1//EN" "http://www.w3.org/Graphics/SVG/1.1/DTD/svg11.dtd">
<svg width="100%" height="100%" viewBox="0 0 64 64" version="1.1" xmlns="http://www.w3.org/2000/svg" xmlns:xlink="http://www.w3.org/1999/xlink" xml:space="preserve" xmlns:serif="http://www.serif.com/" style="fill-rule:evenodd;clip-rule:evenodd;stroke-linejoin:round;stroke-miterlimit:2;">
    <g transform="matrix(1.06709,0,0,1.06709,-2741.76,-209.996)">
        <path d="M4201.51,1835.97C4201.51,1835.96 4201.52,1835.95 4201.53,1835.94C4202.75,1832.62 4205.21,1830.16 4208.52,1828.94C4208.54,1828.93 4208.55,1828.92 4208.57,1828.92C4206.23,1831.29 4203.88,1833.63 4201.51,1835.97ZM3254.56,1828.92C3254.58,1828.92 3254.59,1828.93 3254.61,1828.94C3257.92,1830.16 3260.38,1832.62 3261.6,1835.94C3261.61,1835.95 3261.62,1835.96 3261.62,1835.97C3259.25,1833.63 3256.9,1831.29 3254.56,1828.92ZM3262.36,880.643C3262.2,880.913 3262.04,881.178 3261.91,881.459C3261.82,881.652 3261.68,881.821 3261.6,882.02C3260.38,885.338 3257.92,887.797 3254.61,889.018C3254.41,889.092 3254.24,889.237 3254.04,889.326C3253.77,889.452 3253.51,889.612 3253.25,889.764C3256.25,886.695 3259.29,883.654 3262.36,880.643ZM4209.89,889.764C4209.62,889.612 4209.36,889.452 4209.09,889.326C4208.89,889.237 4208.72,889.092 4208.52,889.018C4205.21,887.797 4202.75,885.338 4201.53,882.02C4201.45,881.821 4201.31,881.652 4201.22,881.459C4201.09,881.178 4200.93,880.913 4200.77,880.643C4203.84,883.654 4206.88,886.695 4209.89,889.764ZM4395.28,1331.51C4389.48,1321.7 4379.01,1312.17 4360.36,1308.14C4360.38,1307.31 4360.39,1306.48 4360.43,1305.71C4360.63,1300.84 4356.81,1296.76 4351.94,1296.76L4350.92,1296.76C4346.65,1296.76 4343.23,1299.98 4342.53,1304.2C4342.42,1304.84 4342.26,1305.51 4342.07,1306.2C4333.57,1306.07 4324.03,1306.75 4312.98,1308.7C4275.57,1315.31 4250.41,1320.97 4230.74,1324.94C4211.08,1320.97 4185.92,1315.31 4148.51,1308.7C4137.46,1306.75 4127.91,1306.07 4119.42,1306.2C4119.23,1305.51 4119.07,1304.84 4118.96,1304.2C4118.25,1299.98 4114.84,1296.76 4110.57,1296.76L4109.54,1296.76C4104.68,1296.76 4100.86,1300.84 4101.06,1305.71C4101.09,1306.48 4101.11,1307.31 4101.12,1308.14C4082.47,1312.17 4072.01,1321.7 4066.21,1331.51C4063.73,1332.07 4061.72,1333.76 4060.58,1336C4055.5,1262.19 4026.17,1195.1 3980.47,1142.58C3982.85,1143.35 3985.47,1143.13 3987.62,1141.78C3998.65,1144.61 4012.79,1143.95 4028.83,1133.61C4029.41,1134.21 4029.98,1134.8 4030.51,1135.38C4033.8,1138.96 4039.39,1139.14 4042.83,1135.7L4043.55,1134.98C4046.57,1131.96 4046.71,1127.27 4044.23,1123.79C4043.85,1123.26 4043.49,1122.67 4043.14,1122.05C4049.24,1116.13 4055.51,1108.9 4061.94,1099.71C4083.72,1068.58 4097.51,1046.79 4108.61,1030.08C4125.32,1018.98 4147.11,1005.19 4178.24,983.41C4187.43,976.977 4194.66,970.707 4200.57,964.608C4201.2,964.961 4201.79,965.325 4202.32,965.704C4205.8,968.183 4210.49,968.045 4213.51,965.023L4214.23,964.299C4217.67,960.859 4217.49,955.273 4213.91,951.98C4213.33,951.453 4212.74,950.877 4212.14,950.299C4222.48,934.261 4223.14,920.123 4220.31,909.092C4221.77,906.75 4221.99,903.842 4220.94,901.306C4328.11,1015.94 4395.47,1168.23 4401.01,1336.19C4399.9,1333.86 4397.83,1332.09 4395.28,1331.51ZM4401.32,1353.42C4401.34,1353.37 4401.34,1353.32 4401.36,1353.27C4401.38,1355.07 4401.43,1356.86 4401.43,1358.67C4401.43,1360.67 4401.37,1362.66 4401.35,1364.66C4401.34,1364.62 4401.33,1364.58 4401.32,1364.54C4401.25,1364.34 4401.23,1364.12 4401.14,1363.93C4399.66,1360.72 4399.66,1357.24 4401.14,1354.03C4401.23,1353.84 4401.25,1353.62 4401.32,1353.42ZM3786.35,1969.94C3785.71,1969.83 3785.03,1969.67 3784.34,1969.48C3784.47,1960.99 3783.79,1951.44 3781.84,1940.39C3775.23,1902.98 3769.58,1877.82 3765.6,1858.16C3769.58,1838.5 3775.23,1813.33 3781.84,1775.92C3783.79,1764.87 3784.47,1755.33 3784.34,1746.83C3785.03,1746.64 3785.71,1746.48 3786.35,1746.37C3790.56,1745.67 3793.78,1742.25 3793.78,1737.98L3793.78,1736.96C3793.78,1732.09 3789.7,1728.27 3784.84,1728.47C3784.06,1728.51 3783.23,1728.52 3782.4,1728.54C3778.37,1709.88 3768.84,1699.42 3759.04,1693.62C3758.47,1691.15 3756.78,1689.14 3754.55,1688C3828.35,1682.92 3895.44,1653.59 3947.96,1607.88C3947.19,1610.26 3947.42,1612.88 3948.77,1615.03C3945.94,1626.07 3946.6,1640.2 3956.93,1656.24C3956.34,1656.82 3955.74,1657.39 3955.17,1657.92C3951.58,1661.22 3951.4,1666.8 3954.84,1670.24L3955.57,1670.97C3958.59,1673.99 3963.28,1674.13 3966.75,1671.65C3967.29,1671.27 3967.88,1670.91 3968.5,1670.55C3974.42,1676.65 3981.64,1682.92 3990.84,1689.35C4021.96,1711.13 4043.76,1724.93 4060.47,1736.02C4071.56,1752.73 4085.35,1774.52 4107.13,1805.65C4113.57,1814.85 4119.84,1822.07 4125.94,1827.99C4125.58,1828.61 4125.22,1829.2 4124.84,1829.73C4122.36,1833.21 4122.5,1837.9 4125.52,1840.92L4126.25,1841.65C4129.69,1845.09 4135.27,1844.9 4138.57,1841.32C4139.09,1840.75 4139.67,1840.15 4140.25,1839.55C4156.29,1849.89 4170.42,1850.55 4181.45,1847.72C4183.52,1849.02 4186.01,1849.26 4188.32,1848.6C4073.97,1955.25 3922.27,2022.34 3754.96,2028.08C3756.98,2026.9 3758.51,2025.01 3759.04,2022.69C3768.84,2016.89 3778.37,2006.43 3782.4,1987.78C3783.23,1987.79 3784.06,1987.81 3784.84,1987.84C3789.7,1988.04 3793.78,1984.22 3793.78,1979.36L3793.78,1978.34C3793.78,1974.06 3790.56,1970.65 3786.35,1969.94ZM3281.68,1847.72C3292.71,1850.55 3306.85,1849.89 3322.88,1839.55C3323.46,1840.15 3324.04,1840.75 3324.56,1841.32C3327.86,1844.9 3333.44,1845.09 3336.88,1841.65L3337.61,1840.92C3340.63,1837.9 3340.77,1833.21 3338.29,1829.73C3337.91,1829.2 3337.55,1828.61 3337.19,1827.99C3343.29,1822.07 3349.56,1814.85 3356,1805.65C3377.78,1774.52 3391.57,1752.73 3402.66,1736.02C3419.37,1724.93 3441.17,1711.13 3472.29,1689.35C3481.49,1682.92 3488.72,1676.65 3494.63,1670.55C3495.25,1670.91 3495.84,1671.27 3496.38,1671.65C3499.85,1674.13 3504.54,1673.99 3507.56,1670.97L3508.29,1670.24C3511.73,1666.8 3511.55,1661.22 3507.96,1657.92C3507.39,1657.39 3506.79,1656.82 3506.2,1656.24C3516.54,1640.2 3517.19,1626.07 3514.36,1615.03C3515.71,1612.88 3515.94,1610.26 3515.17,1607.88C3567.69,1653.59 3634.78,1682.92 3708.58,1688C3706.35,1689.14 3704.66,1691.15 3704.09,1693.62C3694.29,1699.42 3684.76,1709.88 3680.73,1728.54C3679.9,1728.52 3679.07,1728.51 3678.29,1728.47C3673.43,1728.27 3669.35,1732.09 3669.35,1736.96L3669.35,1737.98C3669.35,1742.25 3672.57,1745.67 3676.78,1746.37C3677.42,1746.48 3678.1,1746.64 3678.79,1746.83C3678.66,1755.33 3679.34,1764.87 3681.29,1775.92C3687.9,1813.33 3693.55,1838.5 3697.53,1858.16C3693.55,1877.82 3687.9,1902.98 3681.29,1940.39C3679.34,1951.44 3678.66,1960.99 3678.79,1969.48C3678.1,1969.67 3677.42,1969.83 3676.78,1969.94C3672.57,1970.65 3669.35,1974.06 3669.35,1978.34L3669.35,1979.36C3669.35,1984.22 3673.43,1988.04 3678.29,1987.84C3679.07,1987.81 3679.9,1987.79 3680.73,1987.78C3684.76,2006.43 3694.29,2016.89 3704.09,2022.69C3704.63,2025.01 3706.16,2026.9 3708.17,2028.08C3540.87,2022.34 3389.16,1955.25 3274.81,1848.6C3277.12,1849.26 3279.61,1849.02 3281.68,1847.72ZM3061.81,1364.54C3061.8,1364.58 3061.79,1364.62 3061.78,1364.66C3061.76,1362.66 3061.7,1360.67 3061.7,1358.67C3061.7,1356.86 3061.76,1355.07 3061.77,1353.27C3061.79,1353.32 3061.79,1353.37 3061.81,1353.42C3061.88,1353.62 3061.9,1353.84 3061.99,1354.03C3063.47,1357.24 3063.47,1360.72 3061.99,1363.93C3061.9,1364.12 3061.88,1364.34 3061.81,1364.54ZM3676.78,748.018C3677.42,748.126 3678.1,748.286 3678.79,748.477C3678.66,756.972 3679.34,766.518 3681.29,777.566C3687.9,814.979 3693.55,840.14 3697.53,859.802C3693.55,879.463 3687.9,904.625 3681.29,942.038C3679.34,953.086 3678.66,962.633 3678.79,971.128C3678.1,971.317 3677.42,971.479 3676.78,971.587C3672.57,972.294 3669.35,975.707 3669.35,979.979L3669.35,981.004C3669.35,985.868 3673.43,989.688 3678.29,989.484C3679.07,989.452 3679.9,989.436 3680.73,989.423C3684.76,1008.07 3694.29,1018.54 3704.09,1024.34C3704.66,1026.81 3706.35,1028.82 3708.58,1029.96C3634.78,1035.04 3567.69,1064.37 3515.17,1110.08C3515.94,1107.69 3515.71,1105.08 3514.36,1102.92C3517.19,1091.89 3516.54,1077.76 3506.2,1061.72C3506.79,1061.14 3507.39,1060.56 3507.96,1060.04C3511.55,1056.74 3511.73,1051.16 3508.29,1047.72L3507.56,1046.99C3504.54,1043.97 3499.85,1043.83 3496.38,1046.31C3495.84,1046.69 3495.25,1047.05 3494.63,1047.41C3488.72,1041.31 3481.49,1035.04 3472.29,1028.61C3441.17,1006.83 3419.37,993.032 3402.66,981.938C3391.57,965.227 3377.78,943.436 3356,912.308C3349.56,903.115 3343.29,895.886 3337.19,889.97C3337.55,889.348 3337.91,888.756 3338.29,888.227C3340.77,884.746 3340.63,880.059 3337.61,877.037L3336.88,876.314C3333.44,872.873 3327.86,873.055 3324.56,876.637C3324.04,877.213 3323.46,877.809 3322.88,878.406C3306.85,868.067 3292.71,867.408 3281.68,870.239C3279.33,868.765 3276.4,868.545 3273.86,869.616C3388.58,762.2 3541.11,694.695 3709.34,689.207C3706.7,690.214 3704.73,692.503 3704.09,695.27C3694.29,701.067 3684.76,711.53 3680.73,730.18C3679.9,730.168 3679.07,730.153 3678.29,730.119C3673.43,729.915 3669.35,733.737 3669.35,738.601L3669.35,739.624C3669.35,743.898 3672.57,747.311 3676.78,748.018ZM3875.7,1315.19C3873.45,1315.19 3871.26,1315.41 3869.1,1315.74C3866.54,1307.6 3863.25,1299.78 3859.36,1292.33C3861.13,1291.03 3862.85,1289.63 3864.45,1288.02C3880.46,1272.02 3881.48,1246.71 3867.52,1229.51C3898.68,1262.22 3918.15,1306.12 3919.27,1354.57C3917.06,1332.46 3898.4,1315.19 3875.7,1315.19ZM3735.96,1546.69C3758.08,1544.48 3775.36,1525.82 3775.36,1503.12C3775.36,1500.87 3775.13,1498.67 3774.81,1496.51C3782.95,1493.95 3790.77,1490.67 3798.22,1486.78C3799.52,1488.55 3800.92,1490.26 3802.52,1491.87C3818.53,1507.87 3843.84,1508.89 3861.04,1494.94C3828.33,1526.1 3784.42,1545.57 3735.96,1546.69ZM3736.27,2028.47C3734.7,2028.48 3733.14,2028.53 3731.57,2028.53C3729.99,2028.53 3728.43,2028.48 3726.86,2028.47C3729.92,2027.13 3733.21,2027.13 3736.27,2028.47ZM3660.61,1491.87C3662.21,1490.26 3663.61,1488.55 3664.91,1486.78C3672.36,1490.67 3680.18,1493.95 3688.32,1496.51C3688,1498.67 3687.77,1500.87 3687.77,1503.12C3687.77,1525.82 3705.05,1544.48 3727.17,1546.69C3678.72,1545.57 3634.8,1526.1 3602.09,1494.94C3619.29,1508.89 3644.6,1507.87 3660.61,1491.87ZM3727.15,1171.27C3705.04,1173.48 3687.77,1192.14 3687.77,1214.84C3687.77,1217.09 3688,1219.29 3688.32,1221.45C3680.18,1224.01 3672.36,1227.29 3664.91,1231.18C3663.61,1229.41 3662.21,1227.69 3660.61,1226.09C3644.6,1210.09 3619.29,1209.07 3602.09,1223.02C3634.8,1191.86 3678.71,1172.39 3727.15,1171.27ZM3736.51,689.405C3733.3,690.888 3729.83,690.888 3726.62,689.405C3726.42,689.316 3726.2,689.299 3726,689.226C3725.63,689.086 3725.24,688.975 3724.84,688.887C3727.08,688.865 3729.32,688.802 3731.57,688.802C3733.81,688.802 3736.05,688.865 3738.29,688.887C3737.89,688.975 3737.5,689.086 3737.13,689.226C3736.93,689.299 3736.71,689.316 3736.51,689.405ZM3802.52,1226.09C3800.92,1227.69 3799.52,1229.41 3798.22,1231.18C3790.77,1227.29 3782.95,1224.01 3774.81,1221.45C3775.13,1219.29 3775.36,1217.09 3775.36,1214.84C3775.36,1192.14 3758.09,1173.48 3735.98,1171.27C3784.42,1172.39 3828.33,1191.86 3861.04,1223.02C3843.84,1209.07 3818.53,1210.09 3802.52,1226.09ZM3649.5,1358.98C3649.5,1313.68 3686.26,1276.92 3731.57,1276.92C3776.87,1276.92 3813.63,1313.68 3813.63,1358.98C3813.63,1404.28 3776.87,1441.04 3731.57,1441.04C3686.26,1441.04 3649.5,1404.28 3649.5,1358.98ZM3598.68,1288.02C3600.28,1289.63 3602,1291.03 3603.77,1292.33C3599.88,1299.78 3596.59,1307.6 3594.03,1315.74C3591.87,1315.41 3589.68,1315.19 3587.43,1315.19C3564.73,1315.19 3546.07,1332.46 3543.86,1354.57C3544.98,1306.12 3564.45,1262.22 3595.61,1229.51C3581.65,1246.71 3582.67,1272.02 3598.68,1288.02ZM3595.61,1488.45C3564.45,1455.74 3544.98,1411.84 3543.86,1363.39C3546.07,1385.5 3564.73,1402.77 3587.43,1402.77C3589.68,1402.77 3591.87,1402.55 3594.03,1402.22C3596.59,1410.36 3599.88,1418.18 3603.77,1425.63C3602,1426.93 3600.28,1428.33 3598.68,1429.94C3582.67,1445.94 3581.65,1471.26 3595.61,1488.45ZM3864.45,1429.94C3862.85,1428.33 3861.13,1426.93 3859.36,1425.63C3863.25,1418.18 3866.54,1410.36 3869.1,1402.22C3871.26,1402.55 3873.45,1402.77 3875.7,1402.77C3898.4,1402.77 3917.06,1385.5 3919.27,1363.39C3918.15,1411.84 3898.68,1455.74 3867.52,1488.45C3881.48,1471.26 3880.46,1445.94 3864.45,1429.94ZM4124.84,888.227C4125.22,888.756 4125.58,889.348 4125.94,889.97C4119.84,895.886 4113.57,903.115 4107.13,912.308C4085.35,943.436 4071.56,965.227 4060.47,981.938C4043.76,993.032 4021.96,1006.83 3990.84,1028.61C3981.64,1035.04 3974.42,1041.31 3968.5,1047.41C3967.88,1047.05 3967.29,1046.69 3966.75,1046.31C3963.28,1043.83 3958.59,1043.97 3955.57,1046.99L3954.84,1047.72C3951.4,1051.16 3951.58,1056.74 3955.17,1060.04C3955.74,1060.56 3956.34,1061.14 3956.93,1061.72C3946.6,1077.76 3945.94,1091.89 3948.77,1102.92C3947.42,1105.08 3947.19,1107.69 3947.96,1110.08C3895.44,1064.37 3828.35,1035.04 3754.55,1029.96C3756.78,1028.82 3758.47,1026.81 3759.04,1024.34C3768.84,1018.54 3778.37,1008.07 3782.4,989.423C3783.23,989.436 3784.06,989.452 3784.84,989.484C3789.7,989.688 3793.78,985.868 3793.78,981.004L3793.78,979.979C3793.78,975.707 3790.56,972.294 3786.35,971.587C3785.71,971.479 3785.03,971.317 3784.34,971.128C3784.47,962.633 3783.79,953.086 3781.84,942.038C3775.23,904.625 3769.58,879.463 3765.6,859.802C3769.58,840.14 3775.23,814.979 3781.84,777.566C3783.79,766.518 3784.47,756.972 3784.34,748.477C3785.03,748.286 3785.71,748.126 3786.35,748.018C3790.56,747.311 3793.78,743.898 3793.78,739.624L3793.78,738.601C3793.78,733.737 3789.7,729.915 3784.84,730.119C3784.06,730.153 3783.23,730.168 3782.4,730.18C3778.37,711.53 3768.84,701.067 3759.04,695.27C3758.4,692.503 3756.43,690.214 3753.79,689.207C3922.02,694.695 4074.55,762.2 4189.27,869.616C4186.73,868.545 4183.8,868.765 4181.45,870.239C4170.42,867.408 4156.29,868.067 4140.25,878.406C4139.67,877.809 4139.09,877.213 4138.57,876.637C4135.27,873.055 4129.69,872.873 4126.25,876.314L4125.52,877.037C4122.5,880.059 4122.36,884.746 4124.84,888.227ZM3242.19,901.306C3241.14,903.842 3241.36,906.75 3242.82,909.092C3239.99,920.123 3240.65,934.261 3250.99,950.299C3250.39,950.877 3249.8,951.453 3249.22,951.98C3245.64,955.273 3245.46,960.859 3248.9,964.299L3249.62,965.023C3252.64,968.045 3257.33,968.183 3260.81,965.704C3261.34,965.325 3261.93,964.961 3262.56,964.608C3268.47,970.707 3275.7,976.977 3284.89,983.41C3316.02,1005.19 3337.81,1018.98 3354.52,1030.08C3365.62,1046.79 3379.41,1068.58 3401.19,1099.71C3407.63,1108.9 3413.9,1116.13 3419.99,1122.05C3419.64,1122.67 3419.28,1123.26 3418.9,1123.79C3416.42,1127.27 3416.56,1131.96 3419.58,1134.98L3420.3,1135.7C3423.74,1139.14 3429.33,1138.96 3432.62,1135.38C3433.15,1134.8 3433.73,1134.21 3434.3,1133.61C3450.34,1143.95 3464.48,1144.61 3475.51,1141.78C3477.66,1143.13 3480.28,1143.35 3482.66,1142.58C3436.96,1195.1 3407.63,1262.19 3402.55,1336C3401.41,1333.77 3399.4,1332.07 3396.92,1331.51C3391.12,1321.7 3380.66,1312.17 3362.01,1308.14C3362.02,1307.31 3362.04,1306.48 3362.07,1305.71C3362.27,1300.84 3358.45,1296.76 3353.59,1296.76L3352.56,1296.76C3348.29,1296.76 3344.88,1299.98 3344.17,1304.2C3344.06,1304.84 3343.9,1305.51 3343.71,1306.2C3335.22,1306.07 3325.67,1306.75 3314.62,1308.7C3277.21,1315.31 3252.05,1320.97 3232.39,1324.94C3212.73,1320.97 3187.56,1315.31 3150.15,1308.7C3139.1,1306.75 3129.56,1306.07 3121.06,1306.2C3120.87,1305.51 3120.71,1304.84 3120.6,1304.2C3119.9,1299.98 3116.48,1296.76 3112.21,1296.76L3111.19,1296.76C3106.32,1296.76 3102.5,1300.84 3102.7,1305.71C3102.74,1306.48 3102.75,1307.31 3102.77,1308.14C3084.12,1312.17 3073.65,1321.7 3067.85,1331.51C3065.3,1332.09 3063.23,1333.86 3062.12,1336.19C3067.66,1168.23 3135.02,1015.94 3242.19,901.306ZM3249.22,1765.98C3249.8,1766.51 3250.39,1767.08 3250.99,1767.66C3240.65,1783.7 3239.99,1797.84 3242.82,1808.87C3241.52,1810.94 3241.28,1813.45 3241.95,1815.77C3135.06,1701.32 3067.83,1549.39 3062.14,1381.81C3063.26,1384.12 3065.32,1385.87 3067.85,1386.45C3073.65,1396.26 3084.12,1405.79 3102.77,1409.82C3102.75,1410.65 3102.74,1411.47 3102.7,1412.25C3102.5,1417.12 3106.32,1421.19 3111.19,1421.19L3112.21,1421.19C3116.48,1421.19 3119.9,1417.98 3120.6,1413.76C3120.71,1413.12 3120.87,1412.45 3121.06,1411.76C3129.56,1411.89 3139.1,1411.21 3150.15,1409.26C3187.56,1402.65 3212.73,1396.99 3232.39,1393.02C3252.05,1396.99 3277.21,1402.65 3314.62,1409.26C3325.67,1411.21 3335.22,1411.89 3343.71,1411.76C3343.9,1412.45 3344.06,1413.12 3344.17,1413.76C3344.88,1417.98 3348.29,1421.19 3352.56,1421.19L3353.59,1421.19C3358.45,1421.19 3362.27,1417.12 3362.07,1412.25C3362.04,1411.47 3362.02,1410.65 3362.01,1409.82C3380.66,1405.79 3391.12,1396.26 3396.92,1386.45C3399.4,1385.89 3401.41,1384.19 3402.55,1381.96C3407.63,1455.77 3436.96,1522.86 3482.66,1575.38C3480.28,1574.61 3477.66,1574.83 3475.51,1576.18C3464.48,1573.35 3450.34,1574.01 3434.3,1584.35C3433.73,1583.75 3433.15,1583.16 3432.62,1582.58C3429.33,1579 3423.74,1578.82 3420.3,1582.26L3419.58,1582.98C3416.56,1586 3416.42,1590.69 3418.9,1594.17C3419.28,1594.7 3419.64,1595.29 3419.99,1595.91C3413.9,1601.83 3407.63,1609.06 3401.19,1618.25C3379.41,1649.38 3365.62,1671.17 3354.52,1687.88C3337.81,1698.98 3316.02,1712.77 3284.89,1734.55C3275.7,1740.98 3268.47,1747.25 3262.56,1753.35C3261.93,1753 3261.34,1752.63 3260.81,1752.26C3257.33,1749.78 3252.64,1749.92 3249.62,1752.94L3248.9,1753.66C3245.46,1757.1 3245.64,1762.69 3249.22,1765.98ZM4221.18,1815.77C4221.85,1813.45 4221.61,1810.94 4220.31,1808.87C4223.14,1797.84 4222.48,1783.7 4212.14,1767.66C4212.74,1767.08 4213.33,1766.51 4213.91,1765.98C4217.49,1762.69 4217.67,1757.1 4214.23,1753.66L4213.51,1752.94C4210.49,1749.92 4205.8,1749.78 4202.32,1752.26C4201.79,1752.63 4201.2,1753 4200.57,1753.35C4194.66,1747.25 4187.43,1740.98 4178.24,1734.55C4147.11,1712.77 4125.32,1698.98 4108.61,1687.88C4097.51,1671.17 4083.72,1649.38 4061.94,1618.25C4055.51,1609.06 4049.24,1601.83 4043.14,1595.91C4043.49,1595.29 4043.85,1594.7 4044.23,1594.17C4046.71,1590.69 4046.57,1586 4043.55,1582.98L4042.83,1582.26C4039.39,1578.82 4033.8,1579 4030.51,1582.58C4029.98,1583.16 4029.41,1583.75 4028.83,1584.35C4012.79,1574.01 3998.65,1573.35 3987.62,1576.18C3985.47,1574.83 3982.85,1574.61 3980.47,1575.38C4026.17,1522.86 4055.5,1455.77 4060.58,1381.96C4061.72,1384.2 4063.73,1385.89 4066.21,1386.45C4072.01,1396.26 4082.47,1405.79 4101.12,1409.82C4101.11,1410.65 4101.09,1411.47 4101.06,1412.25C4100.86,1417.12 4104.68,1421.19 4109.54,1421.19L4110.57,1421.19C4114.84,1421.19 4118.25,1417.98 4118.96,1413.76C4119.07,1413.12 4119.23,1412.45 4119.42,1411.76C4127.91,1411.89 4137.46,1411.21 4148.51,1409.26C4185.92,1402.65 4211.08,1396.99 4230.74,1393.02C4250.41,1396.99 4275.57,1402.65 4312.98,1409.26C4324.03,1411.21 4333.57,1411.89 4342.07,1411.76C4342.26,1412.45 4342.42,1413.12 4342.53,1413.76C4343.23,1417.98 4346.65,1421.19 4350.92,1421.19L4351.94,1421.19C4356.81,1421.19 4360.63,1417.12 4360.43,1412.25C4360.39,1411.47 4360.38,1410.65 4360.36,1409.82C4379.01,1405.79 4389.48,1396.26 4395.28,1386.45C4397.81,1385.87 4399.87,1384.12 4400.99,1381.81C4395.29,1549.39 4328.07,1701.32 4221.18,1815.77ZM4893.07,1354.53C4893.68,1353.21 4893.91,1351.7 4893.64,1350.15C4890.79,1334.05 4877.22,1302.58 4813.82,1313.78C4729.83,1328.62 4714.44,1338.14 4673.56,1331.98C4647,1327.98 4640.62,1316.96 4639.4,1309.73C4638.77,1305.94 4635.7,1303.05 4631.86,1303.05L4630.94,1303.05C4626.57,1303.05 4623.13,1306.72 4623.31,1311.09C4623.62,1318.31 4623.14,1328.36 4618.69,1332.35C4614.24,1336.35 4603,1335.46 4594.95,1334.16C4594.2,1334.04 4593.48,1334.06 4592.76,1334.15C4586.64,1114.94 4498.63,916.227 4358.24,767.467C4358.74,767.051 4359.22,766.584 4359.62,766.026C4364.4,759.417 4371.71,750.835 4377.69,750.512C4383.66,750.19 4391.1,756.965 4395.99,762.283C4398.95,765.503 4403.97,765.666 4407.07,762.574L4407.72,761.923C4410.43,759.207 4410.56,754.993 4408.33,751.864C4404.08,745.899 4400.8,733.594 4416.75,711.978C4441.3,678.72 4458.92,674.564 4528.79,625.67C4581.54,588.759 4568.89,556.911 4559.52,543.516C4558.61,542.22 4557.38,541.318 4556.02,540.816C4553.04,539.718 4550.83,537.509 4549.73,534.525C4549.23,533.163 4548.32,531.931 4547.03,531.025C4533.63,521.654 4501.79,509.001 4464.88,561.752C4415.98,631.63 4411.82,649.248 4378.57,673.793C4356.95,689.749 4344.65,686.468 4338.68,682.217C4335.55,679.988 4331.34,680.113 4328.62,682.829L4327.97,683.48C4324.88,686.572 4325.04,691.593 4328.26,694.553C4333.58,699.442 4340.36,706.889 4340.03,712.857C4339.71,718.835 4331.13,726.149 4324.52,730.922C4323.96,731.324 4323.5,731.793 4323.09,732.293C4174.38,591.804 3975.67,503.698 3756.45,497.479C3756.5,496.864 3756.49,496.236 3756.39,495.594C3755.09,487.546 3754.19,476.306 3758.19,471.851C3762.18,467.402 3772.24,466.927 3779.46,467.23C3783.83,467.414 3787.49,463.98 3787.49,459.606L3787.49,458.686C3787.49,454.845 3784.6,451.777 3780.81,451.141C3773.59,449.928 3762.57,443.548 3758.57,416.981C3752.41,376.108 3761.92,360.71 3776.76,276.726C3787.96,213.325 3756.5,199.752 3740.4,196.908C3738.84,196.632 3737.33,196.865 3736.01,197.473C3733.13,198.806 3730,198.806 3727.12,197.473C3725.8,196.865 3724.29,196.632 3722.73,196.908C3706.63,199.752 3675.17,213.325 3686.37,276.726C3701.21,360.71 3710.72,376.108 3704.57,416.981C3700.56,443.548 3689.54,449.928 3682.32,451.141C3678.53,451.777 3675.64,454.845 3675.64,458.686L3675.64,459.606C3675.64,463.98 3679.3,467.414 3683.67,467.23C3690.89,466.927 3700.95,467.402 3704.94,471.851C3708.94,476.306 3708.04,487.546 3706.74,495.594C3706.64,496.236 3706.63,496.864 3706.68,497.479C3487.46,503.698 3288.76,591.804 3140.04,732.293C3139.63,731.793 3139.17,731.324 3138.61,730.922C3132,726.149 3123.42,718.835 3123.1,712.857C3122.77,706.889 3129.55,699.442 3134.87,694.553C3138.09,691.593 3138.25,686.572 3135.16,683.48L3134.51,682.829C3131.79,680.113 3127.58,679.988 3124.45,682.217C3118.48,686.468 3106.18,689.749 3084.56,673.793C3051.31,649.248 3047.15,631.63 2998.25,561.752C2961.34,509.001 2929.5,521.654 2916.1,531.025C2914.81,531.931 2913.9,533.163 2913.4,534.525C2912.3,537.509 2910.09,539.718 2907.11,540.816C2905.75,541.318 2904.52,542.22 2903.61,543.516C2894.24,556.911 2881.59,588.759 2934.34,625.67C3004.21,674.564 3021.83,678.72 3046.38,711.978C3062.33,733.594 3059.05,745.899 3054.8,751.864C3052.57,754.993 3052.7,759.207 3055.41,761.923L3056.07,762.574C3059.16,765.666 3064.18,765.503 3067.14,762.283C3072.03,756.965 3079.47,750.19 3085.44,750.512C3091.42,750.835 3098.73,759.417 3103.51,766.026C3103.91,766.584 3104.39,767.051 3104.89,767.467C2964.5,916.227 2876.49,1114.94 2870.37,1334.15C2869.65,1334.06 2868.93,1334.04 2868.18,1334.16C2860.13,1335.46 2848.89,1336.35 2844.44,1332.35C2839.99,1328.36 2839.51,1318.31 2839.82,1311.09C2840,1306.72 2836.57,1303.05 2832.19,1303.05L2831.27,1303.05C2827.43,1303.05 2824.36,1305.94 2823.73,1309.73C2822.51,1316.96 2816.13,1327.98 2789.57,1331.98C2748.69,1338.14 2733.29,1328.62 2649.31,1313.78C2585.91,1302.58 2572.34,1334.05 2569.49,1350.15C2569.22,1351.7 2569.45,1353.21 2570.06,1354.53C2571.39,1357.42 2571.39,1360.54 2570.06,1363.43C2569.45,1364.75 2569.22,1366.26 2569.49,1367.81C2572.34,1383.91 2585.91,1415.38 2649.31,1404.18C2733.29,1389.34 2748.69,1379.82 2789.57,1385.98C2816.13,1389.98 2822.51,1401 2823.73,1408.23C2824.36,1412.02 2827.43,1414.91 2831.27,1414.91L2832.19,1414.91C2836.57,1414.91 2840,1411.24 2839.82,1406.87C2839.51,1399.65 2839.99,1389.6 2844.44,1385.61C2848.89,1381.61 2860.13,1382.5 2868.18,1383.8C2868.94,1383.92 2869.67,1383.9 2870.39,1383.81C2876.67,1602.95 2964.78,1801.58 3105.24,1950.24C3104.6,1950.71 3104,1951.25 3103.51,1951.93C3098.73,1958.54 3091.42,1967.12 3085.44,1967.45C3079.47,1967.77 3072.03,1961 3067.14,1955.68C3064.18,1952.46 3059.16,1952.29 3056.07,1955.39L3055.41,1956.04C3052.7,1958.75 3052.57,1962.97 3054.8,1966.1C3059.05,1972.06 3062.33,1984.37 3046.38,2005.98C3021.83,2039.24 3004.21,2043.4 2934.34,2092.29C2881.59,2129.2 2894.24,2161.05 2903.61,2174.44C2904.52,2175.74 2905.75,2176.64 2907.11,2177.14C2910.09,2178.24 2912.3,2180.45 2913.4,2183.43C2913.9,2184.8 2914.81,2186.03 2916.1,2186.94C2929.5,2196.3 2961.34,2208.96 2998.25,2156.21C3047.15,2086.33 3051.31,2068.71 3084.56,2044.17C3106.18,2028.21 3118.48,2031.49 3124.45,2035.74C3127.58,2037.97 3131.79,2037.85 3134.51,2035.13L3135.16,2034.48C3138.25,2031.39 3138.09,2026.37 3134.87,2023.41C3129.55,2018.52 3122.77,2011.07 3123.1,2005.1C3123.42,1999.12 3132,1991.81 3138.61,1987.04C3139.3,1986.54 3139.84,1985.93 3140.31,1985.29C3289.02,2125.65 3487.66,2213.67 3706.79,2219.86C3706.66,2220.67 3706.6,2221.5 3706.74,2222.36C3708.04,2230.41 3708.94,2241.65 3704.94,2246.11C3700.95,2250.56 3690.89,2251.03 3683.67,2250.73C3679.3,2250.55 3675.64,2253.98 3675.64,2258.35L3675.64,2259.27C3675.64,2263.11 3678.53,2266.18 3682.32,2266.82C3689.54,2268.03 3700.56,2274.41 3704.57,2300.98C3710.72,2341.85 3701.21,2357.25 3686.37,2441.23C3675.17,2504.63 3706.63,2518.21 3722.73,2521.05C3724.29,2521.33 3725.8,2521.1 3727.12,2520.49C3730,2519.15 3733.13,2519.15 3736.01,2520.49C3737.33,2521.1 3738.84,2521.33 3740.4,2521.05C3756.5,2518.21 3787.96,2504.63 3776.76,2441.23C3761.92,2357.25 3752.41,2341.85 3758.57,2300.98C3762.57,2274.41 3773.59,2268.03 3780.81,2266.82C3784.6,2266.18 3787.49,2263.11 3787.49,2259.27L3787.49,2258.35C3787.49,2253.98 3783.83,2250.55 3779.46,2250.73C3772.24,2251.03 3762.18,2250.56 3758.19,2246.11C3754.19,2241.65 3755.09,2230.41 3756.39,2222.36C3756.53,2221.5 3756.47,2220.67 3756.34,2219.86C3975.48,2213.67 4174.11,2125.65 4322.82,1985.29C4323.29,1985.93 4323.83,1986.54 4324.52,1987.04C4331.13,1991.81 4339.71,1999.12 4340.03,2005.1C4340.36,2011.07 4333.58,2018.52 4328.26,2023.41C4325.04,2026.37 4324.88,2031.39 4327.97,2034.48L4328.62,2035.13C4331.34,2037.85 4335.55,2037.97 4338.68,2035.74C4344.65,2031.49 4356.95,2028.21 4378.57,2044.17C4411.82,2068.71 4415.98,2086.33 4464.88,2156.21C4501.79,2208.96 4533.63,2196.3 4547.03,2186.94C4548.32,2186.03 4549.23,2184.8 4549.73,2183.43C4550.83,2180.45 4553.04,2178.24 4556.02,2177.14C4557.38,2176.64 4558.61,2175.74 4559.52,2174.44C4568.89,2161.05 4581.54,2129.2 4528.79,2092.29C4458.92,2043.4 4441.3,2039.24 4416.75,2005.98C4400.8,1984.37 4404.08,1972.06 4408.33,1966.1C4410.56,1962.97 4410.43,1958.75 4407.72,1956.04L4407.07,1955.39C4403.97,1952.29 4398.95,1952.46 4395.99,1955.68C4391.1,1961 4383.66,1967.77 4377.69,1967.45C4371.71,1967.12 4364.4,1958.54 4359.62,1951.93C4359.13,1951.25 4358.53,1950.71 4357.89,1950.24C4498.35,1801.58 4586.46,1602.95 4592.74,1383.81C4593.46,1383.9 4594.19,1383.92 4594.95,1383.8C4603,1382.5 4614.24,1381.61 4618.69,1385.61C4623.14,1389.6 4623.62,1399.65 4623.31,1406.87C4623.13,1411.24 4626.57,1414.91 4630.94,1414.91L4631.86,1414.91C4635.7,1414.91 4638.77,1412.02 4639.4,1408.23C4640.62,1401 4647,1389.98 4673.56,1385.98C4714.44,1379.82 4729.83,1389.34 4813.82,1404.18C4877.22,1415.38 4890.79,1383.91 4893.64,1367.81C4893.91,1366.26 4893.68,1364.75 4893.07,1363.43C4891.74,1360.54 4891.74,1357.42 4893.07,1354.53Z" style="fill:white;fill-rule:nonzero;"/>
    </g>
</svg>
