<?xml version="1.0" encoding="utf-8"?>
<!-- Generator: Adobe Illustrator 27.0.1, SVG Export Plug-In . SVG Version: 6.00 Build 0)  -->
<svg version="1.1" id="Layer_1" xmlns="http://www.w3.org/2000/svg" xmlns:xlink="http://www.w3.org/1999/xlink" x="0px" y="0px"
	 viewBox="0 0 233 222" style="enable-background:new 0 0 233 222;" xml:space="preserve">
<g>
	<path d="M15.2,146.5c0.2-0.9,0.1-1.7,0.5-2.2c1.8-2.3,3.6-4.7,5.8-6.6c2.8-2.4,5-5.1,6.2-8.6c0.5-1.5,1.2-2.9,1.7-4.4
		c0.2-0.5,0.4-1.1,0.3-1.6c-1-3.3-2.2-6.6-3.3-9.9c-1.2,0.3-2.3,0.5-3.6,0.8c0-5.6,0-11,0-16.7c-1.3,0.3-2.3,0.6-3.8,1
		c0-2.4,0-4.5,0-6.7c0-1.8,0-3.6,0.2-5.4c0.2-2.4,0-4.6-2.4-6.1c-1-0.6-1.1-1.7-0.7-2.9c2.2-6.1,4.3-12.3,6.4-18.5
		c0.3-0.9-0.1-1.9-0.1-2.9c0-1.1-0.2-2.3,0.2-3.2c3.2-6.7,7.2-12.9,12.3-18.3c2.9-3.1,6.5-5.5,9.9-8c2.2-1.6,4.4-3.1,6.8-4.3
		c8.1-4.1,16.6-6.5,25.8-5.6c4.3,0.4,8.1,2.6,11.9,4.5c8,4,14.8,9.7,21.9,15c6.2,4.6,12.5,9,18.8,13.6c3.3,2.4,6.6,4.9,10,7.4
		c6,4.3,12.6,7.6,19.5,10.3c2.9,1.1,3.6,2.7,3.1,5.8c-0.6,4-1,8-1.3,12.1c-0.1,0.8,0.5,1.7,0.8,2.5c0.1,0.2,0.3,0.3,0.3,0.5
		c1.1,5.3,5.7,8.7,7.8,13.5c1,2.4,2.6,4.6,3.9,6.8c0.7,1.2,1.5,2.1,2.8,2.8c8.5,4.7,16.9,9.7,25.4,14.5c1.8,1,3.6,1.9,5.3,3
		c0.9,0.5,1.6,1.4,2.4,2.1c0.3,0.3,0.5,0.8,0.9,0.9c3.1,0.4,3.5,3.3,4.8,5.3c0.7,1.1,0,2.1-0.8,2.6c-1.1,0.8-1.3,1.8-1.2,2.9
		c0.1,0.7,0.2,1.5,0.1,2.1c-0.3,1.4,0.4,2.1,1.5,2.8c3.8,2.4,3.4,2.4,3,6.7c-0.5,5.2-4,8.2-7.1,11.7c-2.6,2.9-4.7,6.1-7.2,9.1
		c-1,1.2-2.3,2.1-3.5,3.1c-3.2,2.6-7.2,3.7-11,5.1c-1.1,0.4-2.4,1.1-2.8,2c-2.2,5-6.9,6.4-11.4,8c-4.2,1.5-8.6,2.7-12.5,4.8
		c-5.3,2.8-10.2,6.4-14.3,11c-0.5,0.6-1.7,1.1-2.5,1c-3.3-0.3-6.6-0.5-9.8-1.2c-6.7-1.4-13-3.8-19-7c-1.7-0.9-2-1.9-1.6-3.7
		c1.2-5.9,3.9-11.2,6.4-16.6c1.2-2.7,2.3-5.5,3.4-8.3c0.3-0.6,0.3-1.4,0.2-2.1c-0.2,0.5-0.4,0.9-0.6,1.4
		c-3.2,7.4-7.6,14.1-12.9,20.2c-0.8,0.9-1.7,1.8-2.7,2.4c-0.5,0.3-1.6,0.4-2.1,0.1c-6.4-4.1-12.9-8.1-19.1-12.5
		c-10.7-7.5-21.2-15.5-32-22.9c-7.4-5.1-15.2-9.3-24-11.5c-4.3-1.1-8.6-2.1-13-1.9C17.9,146.1,16.8,146.3,15.2,146.5z M203.6,146.1
		c3.4-2.8,6.9-5.5,10.3-8.3c-0.3-0.6-0.6-1.1-0.8-1.6c-1.4-2.8-2-3-4.9-1.3c-2,1.2-4,2.3-5.7,3.7c-5.4,4.5-10.8,9.1-16,13.8
		c-2,1.8-3.7,4.1-5.5,6.2c0.7,0.2,1.1,0.1,1.5-0.2c6.2-3.6,12.4-7.2,18.5-10.8C202,147.1,202.8,146.5,203.6,146.1
		c-1.1,1.8-2.2,3.8-3.6,5.6c-2.6,3.5-4.6,7.2-3.7,11.8c0.1,0.3,0,0.6,0,0.9c0.1,1-0.5,1.4-1.4,1.4c-5.4-0.3-10,2-14.7,4
		c-3.4,1.5-6.9,3.4-10.5,4c-5.3,1-10.4,2.1-15.5,3.9c-0.5,0.2-0.9,0.5-1.4,0.8c0.8,0.3,1.3,0.2,1.9,0.1c2.3-0.4,4.6-1,6.9-1.2
		c4.9-0.5,9.9-0.9,14.8-1.1c4.2-0.2,8.4-0.3,12.5,0.2c2.3,0.3,4.3,0.4,6.4-0.5c1.1-0.5,2.4-0.6,3.4-1.3c1.2-0.8,2.7-1.6,3.2-2.8
		c2.5-6.1,4.8-12.3,7-18.5c0.7-1.9,1.2-3.9,1.3-5.9c0.1-1.1-0.6-2.4-1.4-3.3c-0.3-0.3-1.7,0.2-2.5,0.5S204.6,145.6,203.6,146.1z
		 M200.8,129c-1.2-1.1-2.4-2.2-3.5-3.2c-6.3-5.3-13.5-9-21-12.4c-1.7-0.8-2.8-1.8-3.7-3.7c-2.4-4.6-5.2-9.1-8.3-13.3
		c-2.6-3.5-7-4-10.6-1.3c-2.2,1.7-4,3.9-6.2,6c-5.2-1.8-10.7-3.7-16.3-5.7c0-0.2,0.1-0.4,0.1-0.6c4-0.5,8.8,0.9,10.8-4.6
		c-3.2-0.3-6.3-0.5-9.4-0.7c3.5-0.5,7-1.1,9.5-3.6c-0.8-1.3-1.6-2.6-2.7-4.3c-5.4-1-10.5,1.2-15.6,3.8c1.1-2,2.3-3.7,3.4-5.5
		c3.1-4.8,9.6-6.8,14.6-3.7c2.7,1.6,5.5,2.1,8.6,1.2c0.5-0.2,1-0.7,1.5-1c-0.5-0.4-0.9-1.2-1.4-1.3c-4.9-1.2-9.2-3.7-13.3-6.6
		c-3.7-2.7-7.3-5.6-10.9-8.4c-1.8,1.1-3.4,2.1-5,3.3c-2.3,1.8-4.9,3.4-5.5,6.6c-1,4.9-0.3,9.6,2.3,13.9c0.7,1.1,0.6,1.9,0.1,2.9
		c-2,4.3-4.1,8.5-5.8,12.9c-0.8,2-1,4.4-0.7,6.5c0.5,4.9,1.6,9.6,4.4,13.7c1,1.4,2.2,2.9,3.7,3.7c2.7,1.5,5.3,0.3,7.1-1.7
		c2.2-2.4,4-5.2,6.1-7.7c0.5-0.7,1.5-1.2,2.3-1.3c0.4,0,1.4,1,1.5,1.6c1.2,7.6,4.1,14.5,8.9,20.5c3.2,4,6.4,8.1,9.9,11.8
		c2.4,2.5,5.5,4.1,9.2,2.4c0.8-0.4,1.7-0.5,2.8-0.8c0.4,5.2,0.8,10.3,1.2,15.6c3-0.4,5-2.3,7.1-4.2c7.2-6.7,14.4-13.5,21.8-20
		c2.5-2.2,5.5-3.8,8.2-5.8c0.4-0.3,0.9-0.9,0.9-1.4C206.8,130.3,202.8,128.1,200.8,129z M47,102.9c-3.6-4-6.3-8.4-7.1-13.4
		C38.6,81.7,41,75,47.7,70.3c4.9-3.4,12-3.5,16.1,0c2,1.7,3.7,3.7,5.5,5.6c0.3,0.3,0.4,0.8,0.6,1.4c-3,0-5.4,0.6-7.4,3.2
		c1,0.3,1.8,0.7,2.5,0.8c6.7,0.5,11.6,4.1,15.7,9c1,1.2,2.1,2.4,3.1,3.6c0.2-0.1,0.4-0.2,0.6-0.3c-0.2-0.8-0.3-1.6-0.6-2.4
		c-2-4.6-4-9.3-6-13.9c-0.3-0.7-0.8-1.5-1.4-2c-4.6-4.7-10-8.4-15.8-11.1c-4.3-2-9.1-2.5-13.7-1.1C38,65.8,31.7,75.9,33,85.2
		c0.7,5.6,2.7,10.6,5.4,15.5c3.2,5.8,7.6,10.2,13.7,12.9c1.8,0.8,3.7,1.7,5,3.1c4.7,5.1,10.7,5.9,17,5c2.5-0.4,5.1-1.8,7.3-3.2
		c4-2.5,6.1-6.7,7.9-10.9c1.4-3.3,0.7-5.3-2.3-7.2c-2.1-1.4-3.9-1.1-5.2,1c-1,1.5-1.5,3.4-2.5,4.9c-1,1.7-1.9,3.7-3.4,4.7
		c-6.7,4.3-15.7,2.2-20.8-2.6c2.8-3.1,6-0.6,9.3-0.6c-5.9-6.9-10.2-14.1-7.5-23.6c-0.4-0.1-0.7-0.3-1-0.4c-5.4-1.1-9.9,3.5-9.2,9.4
		c0.2,1.9,0.9,3.8,1.4,5.7C48.5,100.4,48.4,101.6,47,102.9z M121.5,150.9c1.7-0.2,3.4-0.7,4.9-0.5c2.5,0.5,4.9,1.5,6.5,3.5
		c1.9,2.3,3.5,4.8,5.3,7.2c0.4,0.5,0.7,1.1,1.1,1.7c0.2-0.1,0.4-0.2,0.7-0.3c-0.8-2.6-1.6-5.2-2.4-7.8c-1.5-4.9-5.6-7.1-9.9-8.6
		C124.4,145.1,120.9,148.2,121.5,150.9z M206.1,166.9c0.1,0.1,0.3,0.1,0.4,0.2c4.1-3.6,8.9-6.6,9.8-12.7c0.1-0.6,0.2-1.2,0.5-1.7
		c0.9-1.6,0.2-2.4-1.3-3c-1.5-0.7-2.4-0.2-3,1.2c-1.9,4.5-3.9,9-5.8,13.5C206.4,165.2,206.3,166.1,206.1,166.9z M154.8,76.1
		c4.6,0.7,6.4-1.7,6.7-5.2c0.1-0.7-0.9-1.6-1.4-2.4c-0.4,0.5-0.9,1-1.3,1.6c-0.9,1.1-1.7,2.5-2.8,3.4
		C155,74.1,154.5,74.8,154.8,76.1z M139.3,169.8c-0.1,2.1-0.2,4.2-0.3,6.3c-0.1,1.9,0.9,3.1,2.5,3.8c1.6,0.6,2.9-0.1,4.6-1.2
		C140.7,177.7,141.2,173.1,139.3,169.8z M159.8,79.5c-3.1,0.1-3.5,0.6-3.1,3.9c0.8,0.3,1.7,0.5,2.6,0.8
		C159.5,82.7,159.7,81.1,159.8,79.5z M158.5,85.8c-0.6,0.5-1,0.7-1.2,1.1c-0.1,0.3,0.1,0.9,0.4,1c0.8,0.5,1.7,1,2.7,1.4
		c0.2,0.1,0.7-0.7,1-1.1C160.5,87.4,159.6,86.6,158.5,85.8z"/>
	<path d="M162.5,112.8c-1.9-1.7-3.7-3.5-5.6-5.1c-0.8-0.7-1.9-1.2-2.8-1.6c-1.4-0.6-2.6-1.2-2.5-3c0.2-1.6,1.3-2.8,3-2.8
		c0.7,0,1.6,0.5,1.9,1c2.2,3.7,4.3,7.5,6.5,11.2C162.8,112.6,162.7,112.7,162.5,112.8z"/>
</g>
</svg>
